<svg xmlns="http://www.w3.org/2000/svg" width="250" height="150" viewBox="0 0 250 150"><rect width="250" height="150" fill="#0b0b0f"/><g stroke="#1e1e26" stroke-width="0.6" opacity="0.7"><line x1="0" y1="0" x2="0" y2="150"/><line x1="25" y1="0" x2="25" y2="150"/><line x1="50" y1="0" x2="50" y2="150"/><line x1="75" y1="0" x2="75" y2="150"/><line x1="100" y1="0" x2="100" y2="150"/><line x1="125" y1="0" x2="125" y2="150"/><line x1="150" y1="0" x2="150" y2="150"/><line x1="175" y1="0" x2="175" y2="150"/><line x1="200" y1="0" x2="200" y2="150"/><line x1="225" y1="0" x2="225" y2="150"/><line x1="250" y1="0" x2="250" y2="150"/><line x1="0" y1="0" x2="250" y2="0"/><line x1="0" y1="25" x2="250" y2="25"/><line x1="0" y1="50" x2="250" y2="50"/><line x1="0" y1="75" x2="250" y2="75"/><line x1="0" y1="100" x2="250" y2="100"/><line x1="0" y1="125" x2="250" y2="125"/><line x1="0" y1="150" x2="250" y2="150"/></g><g fill="#000" opacity="0.25"><rect x="0" y="0" width="250" height="0.5"/><rect x="0" y="3" width="250" height="0.5"/><rect x="0" y="6" width="250" height="0.5"/><rect x="0" y="9" width="250" height="0.5"/><rect x="0" y="12" width="250" height="0.5"/><rect x="0" y="15" width="250" height="0.5"/><rect x="0" y="18" width="250" height="0.5"/><rect x="0" y="21" width="250" height="0.5"/><rect x="0" y="24" width="250" height="0.5"/><rect x="0" y="27" width="250" height="0.5"/><rect x="0" y="30" width="250" height="0.5"/><rect x="0" y="33" width="250" height="0.5"/><rect x="0" y="36" width="250" height="0.5"/><rect x="0" y="39" width="250" height="0.5"/><rect x="0" y="42" width="250" height="0.5"/><rect x="0" y="45" width="250" height="0.5"/><rect x="0" y="48" width="250" height="0.5"/><rect x="0" y="51" width="250" height="0.5"/><rect x="0" y="54" width="250" height="0.5"/><rect x="0" y="57" width="250" height="0.5"/><rect x="0" y="60" width="250" height="0.5"/><rect x="0" y="63" width="250" height="0.5"/><rect x="0" y="66" width="250" height="0.5"/><rect x="0" y="69" width="250" height="0.5"/><rect x="0" y="72" width="250" height="0.5"/><rect x="0" y="75" width="250" height="0.5"/><rect x="0" y="78" width="250" height="0.5"/><rect x="0" y="81" width="250" height="0.5"/><rect x="0" y="84" width="250" height="0.5"/><rect x="0" y="87" width="250" height="0.5"/><rect x="0" y="90" width="250" height="0.5"/><rect x="0" y="93" width="250" height="0.5"/><rect x="0" y="96" width="250" height="0.5"/><rect x="0" y="99" width="250" height="0.5"/><rect x="0" y="102" width="250" height="0.5"/><rect x="0" y="105" width="250" height="0.5"/><rect x="0" y="108" width="250" height="0.5"/><rect x="0" y="111" width="250" height="0.5"/><rect x="0" y="114" width="250" height="0.5"/><rect x="0" y="117" width="250" height="0.5"/><rect x="0" y="120" width="250" height="0.5"/><rect x="0" y="123" width="250" height="0.5"/><rect x="0" y="126" width="250" height="0.5"/><rect x="0" y="129" width="250" height="0.5"/><rect x="0" y="132" width="250" height="0.5"/><rect x="0" y="135" width="250" height="0.5"/><rect x="0" y="138" width="250" height="0.5"/><rect x="0" y="141" width="250" height="0.5"/><rect x="0" y="144" width="250" height="0.5"/><rect x="0" y="147" width="250" height="0.5"/></g><path d="M13,4 H246 V137 L237,146 H4 V13 Z" fill="none" stroke="#ffd35c" stroke-width="1.1" opacity="0.8"/><defs><filter id="glow" x="-60%" y="-60%" width="220%" height="220%"><feGaussianBlur stdDeviation="4"/></filter></defs><polygon points="66.0,46.0 73.6,65.5 94.5,66.7 78.4,80.0 83.6,100.3 66.0,89.0 48.4,100.3 53.6,80.0 37.5,66.7 58.4,65.5" fill="none" stroke="#ffd35c" stroke-width="3" opacity="0.5" filter="url(#glow)"/><polygon points="66.0,46.0 73.6,65.5 94.5,66.7 78.4,80.0 83.6,100.3 66.0,89.0 48.4,100.3 53.6,80.0 37.5,66.7 58.4,65.5" fill="#ffd35c" fill-opacity="0.12" stroke="#ffd35c" stroke-width="1.6" stroke-linejoin="round"/><circle cx="66" cy="76" r="39" fill="none" stroke="#7fd4ff" stroke-width="0.8" opacity="0.5" stroke-dasharray="1.5 4"/><text x="128" y="62" fill="#ffd35c" font-family="Consolas, 'DejaVu Sans Mono', 'Courier New', monospace" font-size="12" letter-spacing="1.6">LIFETIME</text><text x="128" y="78" fill="#ffd35c" font-family="Consolas, 'DejaVu Sans Mono', 'Courier New', monospace" font-size="12" letter-spacing="1.6">MEMBER</text><rect x="128" y="96" width="18" height="3.5" fill="#ffd35c" opacity="1"/><rect x="152" y="96" width="18" height="3.5" fill="#ffd35c" opacity="1"/><rect x="176" y="96" width="18" height="3.5" fill="#ffd35c" opacity="1"/><rect x="200" y="96" width="18" height="3.5" fill="#ffd35c" opacity="1"/></svg>